# xmcd
#
# Track frame offsets:
# 150
# 18255
# 48544
# 65125
# 86340
# 100088
# 136708
# 151488
# 184765
# 215391
# 233722
# 258482
# 278440
# 300149
#
# Disc length: 4358 seconds
#
#
# Revision: 0
# Processed by: cddbd v1.5.2PL0 Copyright (c) Steve Scherf et al.
# Submitted via: FreeRIP 2.96 
#
DISCID=ad11040e
DTITLE=Ken Follett - World Without End CD7 of 12
DYEAR=2007
DGENRE=Audio Book
TTITLE0=083 - Edmund said, "Murfin's
TTITLE1=084 - On Sunday morning, Cariss watched
TTITLE2=085 - On Wednesday morning, Murfin
TTITLE3=086 - Cariss was unable to find out
TTITLE4=087 - It was powerful testimony
TTITLE5=088 - She made her way to the
TTITLE6=089 - If Cariss dies, Murfin thought
TTITLE7=090 - March 1346 - December 1948
TTITLE8=091 - After supper, the nuns went
TTITLE9=092 - Cariss was uneasy about
TTITLE10=093 - The Kingsbridge Fleece Fair
TTITLE11=094 - The illness that had started with
TTITLE12=095 - They found him at his new palace
TTITLE13=096 - She felt so indignant, she
EXTD=read by Richard E. Grant
EXTT0=
EXTT1=
EXTT2=
EXTT3=
EXTT4=
EXTT5=
EXTT6=
EXTT7=
EXTT8=
EXTT9=
EXTT10=
EXTT11=
EXTT12=
EXTT13=
PLAYORDER=
